<svg id="Camada_1" data-name="Camada 1" xmlns="http://www.w3.org/2000/svg" viewBox="120 480 760 30" width="135" height="30"><defs><style>.cls-1{fill:#f75cb8;}.cls-2{fill:#ffcd00;}</style></defs><path class="cls-1" d="M166,527.28a53.87,53.87,0,0,1,75.74-75.74l12.22-12.22A71.08,71.08,0,0,0,153.76,539.5Z"/><path class="cls-2" d="M161.89,547.94A71.3,71.3,0,0,0,262.38,447.45Z"/><path d="M347.17,456.64v27.74h51.6v9.36a7.43,7.43,0,0,1-7.43,7.43H347.17v45.69H327.33V452A12,12,0,0,1,339.28,440h66.05v8.43a8.21,8.21,0,0,1-8.2,8.21Z"/><path d="M407,506.1c0-24.43,18.32-41.68,43.36-41.68,25.34,0,43.5,17.25,43.5,41.68s-18.16,41.83-43.5,41.83C425.35,547.93,407,530.52,407,506.1Zm67.63,0c0-15.57-10.38-25.5-24.27-25.5s-24.13,9.93-24.13,25.5,10.39,25.49,24.13,25.49S474.66,521.67,474.66,506.1Z"/><path d="M552.32,464.42v18.17a23.82,23.82,0,0,0-4.43-.46c-14.5,0-23.66,8.55-23.66,25.19v39.54H505.15V465.34h18.16v11.91C528.81,468.7,538.73,464.42,552.32,464.42Z"/><path d="M559.69,535.56l3.79-8.52a6.39,6.39,0,0,1,9-2.89,61.3,61.3,0,0,0,29.31,7.75c16.64,0,23.67-6,23.67-13.89,0-23.06-63.51-7.94-63.51-47.63,0-17.25,13.74-31.91,43-31.91,12.82,0,26.26,3.36,35.57,9.46l-3.33,8.21a7.16,7.16,0,0,1-9.53,3.84,57.78,57.78,0,0,0-22.86-5c-16.49,0-23.21,6.41-23.21,14.5,0,22.75,63.36,7.94,63.36,47.17,0,17.1-13.9,31.75-43.21,31.75C585.18,548.38,568.54,543.19,559.69,535.56Z"/><path d="M656.44,465.34h19.08v81.52H656.44Z"/><path d="M772,465.34v69.15c0,29.62-15.42,43-44,43-15.26,0-30.38-4-39.69-11.6l8.55-14.35c7.18,5.95,18.78,9.77,30.07,9.77,18,0,26-8.24,26-24.73v-4.28c-6.72,7.33-16.34,10.84-27.33,10.84-23.36,0-41.22-15.87-41.22-39.54s17.86-39.23,41.22-39.23c11.45,0,21.53,3.67,28.24,11.76V465.34Zm-18.78,38.31c0-13.73-10.38-23-24.73-23s-24.88,9.32-24.88,23c0,13.9,10.38,23.36,24.88,23.36S753.26,517.55,753.26,503.65Z"/><path d="M863.1,500.14v46.72H844V502.59c0-14.51-7.17-21.53-19.39-21.53-13.58,0-22.74,8.25-22.74,24.58v41.22H782.81V465.34H801v10.53c6.26-7.48,16.18-11.45,28.09-11.45C848.6,464.42,863.1,475.57,863.1,500.14Z"/><circle cx="666.01" cy="442.91" r="11.82"/></svg>